<svg width="152px" height="22px" viewBox="0 0 152 22" xmlns="http://www.w3.org/2000/svg"><g fill="none" fill-rule="evenodd"><path d="m52.812 19.86c-.072.069-.227.103-.465.103h-2.529c-.191 0-.33-.038-.417-.116-.087-.077-.132-.219-.132-.426v-16.978c0-.207.044-.348.132-.426.087-.078.226-.116.417-.116h2.529c.238 0 .393.035.465.103.071.069.107.215.107.439v16.978c0 .224-.036.371-.107.439m8.38-11.1v10.667c0 .225-.037.37-.111.438-.074.069-.225.102-.455.102h-2.581c-.196 0-.34-.038-.43-.115-.09-.077-.135-.218-.135-.425v-15.717c0-.67.115-1.138.343-1.404.23-.266.648-.4 1.254-.4h1.033c.245 0 .454.013.627.039.172.025.323.081.454.167.131.086.254.206.368.36.115.156.246.353.393.593l4.178 6.673 2.114 3.479h.123v-10.771c0-.206.037-.348.11-.426.074-.077.225-.116.455-.116h2.582c.375 0 .564.18.564.541v15.743c0 .55-.106.984-.32 1.301-.212.319-.638.476-1.277.476h-1.032c-.246 0-.455-.012-.627-.038-.172-.025-.324-.081-.454-.167-.131-.087-.254-.202-.369-.348-.114-.146-.245-.339-.393-.581l-3.932-6.235-2.359-3.84h-.123m18.352 11.12c-.068.06-.232.089-.49.089h-2.732c-.207 0-.357-.038-.451-.115-.095-.077-.142-.218-.142-.425v-12.754c0-.619.08-1.211.245-1.779.163-.567.43-1.073.799-1.52.37-.447.854-.803 1.456-1.069.602-.266 1.349-.399 2.243-.399h6.602c.223 0 .365.043.426.129.06.085.089.249.089.489v2.191c0 .223-.038.373-.115.45-.078.077-.212.116-.4.116h-5.752c-.671 0-1.117.151-1.342.451-.223.3-.335.682-.335 1.146v2.37h6.397c.206 0 .339.039.399.116.061.077.091.245.091.503v2.01c0 .206-.035.356-.104.451-.069.095-.198.142-.386.142h-6.397v6.957c0 .241-.034.391-.103.452m14.325-.014c-.071.069-.225.103-.465.103h-2.528c-.191 0-.33-.038-.417-.116-.088-.077-.132-.219-.132-.426v-16.978c0-.207.044-.348.132-.426.087-.078.226-.116.417-.116h2.528c.239 0 .394.035.465.103.073.069.108.215.108.439v16.978c0 .224-.035.371-.108.439m7.469-11.1v10.667c0 .225-.037.37-.111.438-.073.069-.225.102-.455.102h-2.58c-.197 0-.339-.038-.43-.115-.091-.077-.135-.218-.135-.425v-15.717c0-.67.114-1.138.344-1.404.229-.266.647-.4 1.254-.4h1.032c.245 0 .454.013.627.039.171.025.323.081.455.167.13.086.253.206.368.36.115.156.246.353.393.593l4.178 6.673 2.113 3.479h.123v-10.771c0-.206.037-.348.111-.426.073-.077.226-.116.455-.116h2.581c.375 0 .565.18.565.541v15.743c0 .55-.107.984-.32 1.301-.213.319-.638.476-1.278.476h-1.031c-.246 0-.455-.012-.628-.038-.172-.025-.323-.081-.454-.167-.132-.087-.254-.202-.369-.348-.115-.146-.245-.339-.392-.581l-3.932-6.235-2.36-3.84h-.122m29.13 8.444c0 .592-.133 1.098-.398 1.521-.266.423-.758.727-1.478.914-.343.084-.72.148-1.132.191-.411.042-.822.071-1.234.088-.411.016-.796.029-1.155.038-.36.008-.653.012-.875.012-1.473 0-2.736-.122-3.79-.367-1.054-.246-1.915-.664-2.584-1.256-.667-.593-1.156-1.378-1.464-2.36-.309-.981-.463-2.215-.463-3.703l-.026-9.844c0-.203.051-.342.153-.418.103-.076.249-.114.437-.114h2.751c.257 0 .424.034.5.102.078.067.117.211.117.43v10.07c0 .693.06 1.298.179 1.814.121.517.335.942.643 1.281.309.338.723.587 1.247.748.522.16 1.194.241 2.02.241.12 0 .282-.005.487-.012.207-.009.433-.017.681-.026.249-.008.506-.025.772-.05.265-.026.51-.064.733-.115v-13.953c0-.203.046-.342.141-.418.094-.076.244-.114.45-.114h2.724c.257 0 .416.034.475.102.06.067.09.211.09.43v14.765m17.316-7.619h-.152l-1.039 2.396-2.101 4.741c-.185.447-.375.748-.568.901-.195.155-.485.232-.872.232h-1.393c-.423 0-.715-.077-.874-.232-.161-.154-.342-.454-.544-.901l-1.57-3.349-1.568-3.478h-.152v9.559c0 .241-.043.386-.127.439-.085.051-.237.076-.455.076h-2.582c-.185 0-.329-.025-.43-.076-.101-.052-.151-.198-.151-.439v-15.744c0-.652.122-1.116.367-1.391.246-.274.664-.412 1.255-.412h1.471c.472 0 .822.09 1.051.271.227.18.444.493.647.94l2.763 6.287 1.57 3.659h.101l1.724-4.02 2.585-5.875c.203-.463.428-.79.672-.979.244-.189.637-.283 1.178-.283h1.242c.541 0 .947.116 1.216.347.271.232.406.674.406 1.327v15.873c0 .241-.044.386-.127.439-.086.051-.238.076-.459.076h-2.523c-.186 0-.327-.025-.42-.076-.093-.052-.14-.198-.14-.439v-9.868" fill="#3b3b3a"/><path d="m10.268 17.11c3.261 0 5.882-3.106 7.98-5.782-2.388-3.472-4.426-6.576-8.271-6.576-3.145 0-5.415 2.557-5.415 6.392 0 3.226 2.388 5.966 5.59 5.966h.116m31.703-6.388c0 7.01-4.895 11.141-10.02 11.141-3.283 0-6.909-1.318-10.94-7.01-3.108 4.01-6.275 7.01-11.169 7.01-5.124 0-9.844-4.313-9.844-10.842 0-6.53 4.549-11.02 10.42-11.02 4.605 0 7.535 2.638 10.586 6.829 2.418-2.814 5.764-6.886 11.292-6.829 5.353.06 9.672 4.193 9.672 10.662v.061m-10.268-5.97c-3.261 0-5.882 3.106-7.98 5.782 2.388 3.472 4.426 6.576 8.271 6.576 3.146 0 5.415-2.557 5.415-6.392 0-3.226-2.388-5.966-5.59-5.966h-.116" fill="#d8262c"/></g></svg>